



<svg xmlns="http://www.w3.org/2000/svg" width="666.667" height="666.667" version="1.0" viewBox="0 0 500 500"><path d="M299.3 76.1c-3.8 2.4-3.9 3-1.6 11.3 2.4 9 2.1 27.8-.6 37.9-2.2 8.5-8 20.8-12.8 27.4l-3 4.2.5-11.2c.4-8.8.1-12.6-1.3-17.2-3.1-10.8-8.3-19-16.7-26.4l-3.6-3.2-4.6 2.3c-2.5 1.2-4.6 2.5-4.6 2.9 0 .4 2.1 2.3 4.8 4.2 12 8.9 18.9 26 16.2 40.8-2.6 14.1-11 25.3-23.7 31.6-6.5 3.2-8.6 3.7-16.3 4.1-7 .4-10.3 0-15.8-1.7-22.4-6.8-35.2-30.9-28.3-53.1l2-6.2-4.6.7c-6.8 1-7 1.2-8.2 7.2-3.3 16.8 1.6 34.1 13.3 46.8 3.1 3.2 5.4 6 5.3 6.1-.6.6-17-6.5-22.3-9.7-13.1-7.9-26.3-23.2-32.5-37.7l-2.8-6.7-4.8.3c-2.6.2-5 .5-5.1.7-.6.6 6.4 16.3 10 22.3 4.7 8.1 21.7 24.8 30.3 29.8 8 4.6 17.4 8.6 26.7 11.2 4.8 1.3 10 1.7 22.3 1.6 14.4 0 16.9-.3 24.8-2.7 34.1-10.5 58.4-36.8 65.2-70.6 2.4-11.6 1.7-32.7-1.4-42.4-1.2-3.7-2.5-6.7-2.9-6.7-.4 0-2.2 1-3.9 2.1zM277.5 186.5c-17.5 8.3-44.9 17.2-66.4 21.4-4.7.9-8.6 2.2-8.8 2.8-.6 1.7 8.3 5.3 13.1 5.3h4.3l1.7 5.8c2.3 8.3 2 16-.9 24.8-1.4 4.1-2.5 7.6-2.5 7.8 0 .1 3.2.8 7.1 1.5 24 4.3 44.9 28.2 44.9 51.4 0 6.5 1.8 5.8 4.8-1.8 5.9-14.5 6.7-34.5 2.2-49-3-9.6-9.1-21-14.5-27.2l-4.5-5.1 5.2-2.5c7.7-3.6 13.8-8.3 13.8-10.8 0-1.1.7-3.3 1.4-4.8 1.6-2.9 8-9.1 9.5-9.1 2.4 0 2-14-.4-14.6-.6-.1-5 1.7-10 4.1zM144 345.1v17l4.3-.3c3.7-.3 4.2-.6 4.2-2.7 0-1.8.7-2.6 2.6-3.1 9.3-2.5 13.7-12.9 8.9-20.8-3-4.9-7.5-7.2-14.2-7.2H144v17.1zm11.8-6.9c1.9 1.9 1.4 6.3-.8 8.3-1.1 1-2 1.6-2.1 1.4 0-.2-.1-2.8-.3-5.7-.2-5.2.8-6.4 3.2-4zM177.6 330.3c-4.4 2.5-8.6 9.3-8.6 13.9 0 3.4 2.4 9.5 4.8 12.1 2.8 3.1 7.3 4.9 12.2 4.9 5.8 0 10.1-2.1 13.6-6.7 8.1-10.7 0-26.5-13.6-26.5-2.8 0-6 .9-8.4 2.3zM189 337c.5 0 1.8 1 3 2.2 4.6 4.9.8 13.8-6 13.8-6.9 0-10.7-9.2-5.7-13.7 2.6-2.4 4.7-3.3 6.5-2.7.8.2 1.8.4 2.2.4zM207.2 344.7l.3 16.8h4c3.9 0 4-.1 4.1-3.8.1-2 .3-4 .6-4.3.3-.3 1.9 1.4 3.5 3.8 2.4 3.7 3.4 4.3 6.7 4.6 2.1.2 4.2 0 4.7-.5.4-.4-.8-3.2-2.6-6.2-3.2-5-3.3-5.6-1.9-7.2.9-1 1.8-3.5 2.1-5.7 1.1-8.3-5.6-14.2-16.2-14.2H207l.2 16.7zm12.2-6.1c1.2 1.2 1.3 2 .6 3.5-.6 1-1.5 1.9-2 1.9h-1.7c-.5 0-.8-4.3-.4-6.5.2-1 2-.5 3.5 1.1zM233 332c0 3.8.2 4 3 4h2.9l.3 12.7.3 12.8h8l.3-12.8.3-12.7h2.9c2.8 0 3-.2 3-4v-4h-21v4zM259.2 344.7l.3 16.8h20l.3-4.3.3-4.2H268v-25h-9l.2 16.7zM288.9 344.5c-3.1 9-5.4 16.7-5.1 17 .3.3 2.2.5 4.3.5 2.9 0 3.9-.5 4.4-2 .5-1.6 1.5-2 5.5-2 3.9 0 5.2.4 6 2 .8 1.5 2.1 2 5.1 2 2.9 0 4-.4 3.7-1.3-.2-.8-2.5-8.4-5.3-17l-5-15.7h-8l-5.6 16.5zm11 3.7c.1.5-.6.8-1.4.8-1.6 0-1.9-.9-.8-3.6.6-1.6.7-1.6 1.4.2.4 1 .8 2.2.8 2.6zM317.2 344.6l.3 16.7h8l.5-8.1.5-8.1 4.4 8 4.4 7.9h9.7l-.2-16.3-.3-16.2-4.2-.3-4.3-.3v17.6l-4.9-8.5-4.8-8.5-4.7-.3-4.6-.3.2 16.7zM350 344.4V361h6.1c11.2 0 17-4.9 17.7-15 .5-6.8-1.2-10.7-6.4-14.7-3-2.2-4.9-2.8-10.5-3.1l-6.9-.4v16.6zm14.4-4.2c2.4 3.4 2 7.5-1 10.3-1.5 1.4-3.1 2.5-3.5 2.5-.5 0-.9-3.8-.9-8.5 0-8.2.1-8.5 1.9-7.5 1.1.5 2.7 2 3.5 3.2zM204 379.4v9.6h5.5c4.2 0 5.5-.3 5.5-1.5 0-1-1.1-1.5-3.5-1.5h-3.4l-.3-7.7c-.3-6.5-.6-7.8-2-8.1-1.6-.3-1.8.6-1.8 9.2zM219 379.5v9.5h6c4.6 0 6-.3 6-1.4 0-1-1.4-1.6-4.2-1.8-3.5-.2-4.3-.7-4.3-2.3 0-1.6.6-2 3.3-1.7 2.6.2 3.2-.2 3.2-1.7s-.8-2.1-3.2-2.3c-2.2-.2-3.4-.9-3.6-2.1-.3-1.4.4-1.7 4.2-1.7 3.9 0 4.6-.3 4.6-2 0-1.8-.7-2-6-2h-6v9.5zM238.1 378.9c-1.7 5-3.1 9.2-3.1 9.6 0 .3.9.5 2 .5s2-.5 2-1c0-.6 1.5-1 3.4-1s3.8.4 4.1 1c.3.5 1.5 1 2.5 1 1.8 0 1.7-.6-1.3-9.2-4.3-12.4-5.5-12.5-9.6-.9zm6.4 1.8c.5 1.9.2 2.3-1.4 2.3-2.3 0-2.4-.3-1.5-3.8.7-2.6 1.8-2 2.9 1.5zM252.5 371c-.8 1.3.3 3 2.1 3 1.1 0 1.4 1.6 1.4 7.5 0 6.8.2 7.5 2 7.5s2-.7 2-7.4c0-6.6.2-7.4 2.1-7.9 1.2-.3 1.9-1.2 1.7-1.9-.6-1.6-10.3-2.4-11.3-.8zM267.7 370.7c-.4.3-.7 4.6-.7 9.5 0 8.1.2 8.8 2 8.8 1.6 0 2-.7 2-3.5 0-3.3.2-3.5 3.5-3.5s3.5.2 3.5 3.5c0 2.7.4 3.5 1.8 3.5 1.6 0 1.8-1 1.7-9.3-.1-7.7-.4-9.3-1.8-9.5-1.4-.3-1.7.5-1.7 3.7 0 4-.1 4.1-3.5 4.1s-3.5-.1-3.5-4c0-3.8-1.4-5.2-3.3-3.3zM286 379.5v9.5h6c4.7 0 6-.3 6-1.5 0-1.1-1.2-1.5-4.6-1.5-4.1 0-4.5-.2-4.2-2.3.2-1.7 1.1-2.3 3.6-2.5 4.6-.5 4.3-3.2-.3-3.2-2.8 0-3.5-.4-3.5-1.9 0-1.6.8-2 4.3-2.3 2.9-.2 4.2-.8 4.2-1.8 0-1.1-1.4-1.6-5.7-1.8l-5.8-.3v9.6zM303 379.4c0 7.9.3 9.6 1.5 9.6.9 0 1.5-.9 1.5-2.5 0-1.4.6-2.5 1.3-2.5.8 0 2 1.1 2.7 2.5.7 1.4 2.2 2.5 3.2 2.5 2.2 0 2.2-.4.2-3.6-1.3-1.9-1.4-2.8-.5-3.7 1.8-1.8 1.3-7.2-.8-9.1-1-.9-3.5-2-5.5-2.3l-3.6-.6v9.7zm7.4-3.1c.9 1.5.7 2.1-.8 3.3-3 2.1-3.6 1.7-3.6-2.2 0-2.8.4-3.5 1.6-3.2.9.2 2.2 1.1 2.8 2.1zM186 379.5c0 1.2 1.3 1.5 6 1.5s6-.3 6-1.5-1.3-1.5-6-1.5-6 .3-6 1.5zM319.7 378.6c-1.8 1.8-.2 2.4 5.9 2.4 4.8 0 6.5-.3 6.2-1.3-.5-1.3-10.9-2.3-12.1-1.1z"/></svg>